<?xml version="1.0" encoding="iso-8859-1"?>
<!-- Generator: Adobe Illustrator 18.0.0, SVG Export Plug-In . SVG Version: 6.00 Build 0)  -->
<!DOCTYPE svg PUBLIC "-//W3C//DTD SVG 1.1//EN" "http://www.w3.org/Graphics/SVG/1.1/DTD/svg11.dtd">
<svg version="1.1" id="Capa_1" xmlns="http://www.w3.org/2000/svg" xmlns:xlink="http://www.w3.org/1999/xlink" x="0px" y="0px"
	 viewBox="0 0 489.041 489.041" style="enable-background:new 0 0 489.041 489.041;" xml:space="preserve">
<path id="XMLID_87_" d="M434.6,0h-86.114c-8.925,0-16.146,7.228-16.146,16.141c0,8.918,7.221,16.148,16.146,16.148h47.14
	l-79.195,79.201c-18.776-13.964-41.385-21.623-65.201-21.623c-29.297,0-56.824,11.405-77.534,32.114
	c-0.431,0.422-0.778,0.883-1.179,1.307c-7.922-1.818-16.119-2.877-24.566-2.877c-60.462,0-109.657,49.193-109.657,109.648
	c0,54.957,40.698,100.475,93.507,108.326v43.703H94.801c-8.926,0-16.145,7.229-16.145,16.139c0,8.92,7.219,16.148,16.145,16.148
	h36.998v58.52c0,8.92,7.225,16.146,16.15,16.146c8.913,0,16.131-7.227,16.131-16.146v-58.52h36.998
	c8.914,0,16.137-7.228,16.137-16.148c0-8.91-7.223-16.139-16.137-16.139h-36.998v-43.703c24.359-3.619,46.119-15.199,62.508-32.105
	c7.983,1.835,16.229,2.871,24.627,2.871c0.014,0,0,0,0.014,0c29.271,0,56.814-11.406,77.523-32.113
	c20.707-20.708,32.102-48.246,32.102-77.527c0.018-23.824-7.635-46.422-21.6-65.192l79.195-79.192v47.12
	c0,8.911,7.225,16.14,16.15,16.14s16.148-7.229,16.148-16.14V16.141C450.749,7.228,443.526,0,434.6,0z M215.174,267.568
	c-6.711-3.57-13.105-7.818-18.633-13.35c-24.98-24.965-28.951-62.77-12.58-92.211c24.453,13.015,41.334,38.465,41.334,68.051
	C225.295,243.736,221.407,256.41,215.174,267.568z M147.95,307.42c-42.671,0-77.357-34.711-77.357-77.361
	c0-42.657,34.687-77.361,77.357-77.361c1.402,0,2.691,0.343,4.082,0.414c-18.938,40.611-11.796,90.474,21.68,123.935
	c5.963,5.97,12.543,11.063,19.51,15.439C180.469,301.768,164.913,307.42,147.95,307.42z M305.922,254.209
	c-14.615,14.619-34.049,22.661-54.693,22.661c-1.385,0-2.705-0.329-4.096-0.399c6.633-14.115,10.441-29.811,10.441-46.412
	c0-39.182-20.723-73.535-51.725-92.927c13.15-9.597,28.787-14.976,45.379-14.976c20.662,0,40.096,8.041,54.711,22.65
	c14.603,14.609,22.652,34.043,22.652,54.703C328.575,220.168,320.526,239.592,305.922,254.209z"/>
<g>
</g>
<g>
</g>
<g>
</g>
<g>
</g>
<g>
</g>
<g>
</g>
<g>
</g>
<g>
</g>
<g>
</g>
<g>
</g>
<g>
</g>
<g>
</g>
<g>
</g>
<g>
</g>
<g>
</g>
</svg>
